<svg xmlns="http://www.w3.org/2000/svg" width="1456" height="488" viewBox="0 0 1456 488">
<rect width="100%" height="100%" fill="#f8fafc"/>
<text x="28" y="36" font-family="Helvetica, Arial, sans-serif" font-size="18" font-weight="700" fill="#0f172a">Clinical triage assistant</text>
<defs><marker id="arrow" viewBox="0 0 10 10" refX="8" refY="5" markerWidth="8" markerHeight="8" orient="auto-start-reverse"><path d="M 0 0 L 10 5 L 0 10 z" fill="#64748b"/></marker></defs>
<text x="28" y="56" font-family="Helvetica, Arial, sans-serif" font-size="11" fill="#64748b">Healthcare application team that owns intake, triage workflow, model integration, and clinician review.</text>
<rect x="28" y="72" width="264" height="120" rx="8" fill="#fff" stroke="#94a3b8" data-id="public" data-kind="trust-boundary"/>
<text x="40" y="100" font-family="Helvetica, Arial, sans-serif" font-size="12" font-weight="700" fill="#1e3a8a">Public intake</text>
<rect x="308" y="72" width="264" height="360" rx="8" fill="#fff" stroke="#94a3b8" data-id="application" data-kind="trust-boundary"/>
<text x="320" y="100" font-family="Helvetica, Arial, sans-serif" font-size="12" font-weight="700" fill="#1e3a8a">Clinical application</text>
<rect x="588" y="72" width="264" height="180" rx="8" fill="#fff" stroke="#94a3b8" data-id="clinical-data" data-kind="trust-boundary"/>
<text x="600" y="100" font-family="Helvetica, Arial, sans-serif" font-size="12" font-weight="700" fill="#1e3a8a">Clinical data zone</text>
<rect x="868" y="72" width="264" height="120" rx="8" fill="#fff" stroke="#94a3b8" data-id="workforce" data-kind="trust-boundary"/>
<text x="880" y="100" font-family="Helvetica, Arial, sans-serif" font-size="12" font-weight="700" fill="#1e3a8a">Clinical workforce</text>
<rect x="1148" y="72" width="264" height="120" rx="8" fill="#fff" stroke="#94a3b8" data-id="provider" data-kind="trust-boundary"/>
<text x="1160" y="100" font-family="Helvetica, Arial, sans-serif" font-size="12" font-weight="700" fill="#1e3a8a">Model provider</text>
<rect x="44" y="120" width="232" height="44" rx="6" fill="#dcfce7" stroke="#334155" data-id="patient" data-kind="component"/>
<text x="160.0" y="146.0" text-anchor="middle" font-family="Helvetica, Arial, sans-serif" font-size="11" fill="#0f172a">Patient</text>
<rect x="324" y="120" width="232" height="44" rx="6" fill="#e0e7ff" stroke="#334155" data-id="intake-api" data-kind="component"/>
<text x="440.0" y="146.0" text-anchor="middle" font-family="Helvetica, Arial, sans-serif" font-size="11" fill="#0f172a">Intake API</text>
<rect x="324" y="180" width="232" height="44" rx="6" fill="#e0e7ff" stroke="#334155" data-id="triage-orchestrator" data-kind="component"/>
<text x="440.0" y="206.0" text-anchor="middle" font-family="Helvetica, Arial, sans-serif" font-size="11" fill="#0f172a">Triage orchestrator</text>
<rect x="324" y="240" width="232" height="44" rx="6" fill="#e0e7ff" stroke="#334155" data-id="prompt-builder" data-kind="component"/>
<text x="440.0" y="266.0" text-anchor="middle" font-family="Helvetica, Arial, sans-serif" font-size="11" fill="#0f172a">Prompt builder</text>
<rect x="324" y="300" width="232" height="44" rx="6" fill="#e0e7ff" stroke="#334155" data-id="clinician-console" data-kind="component"/>
<text x="440.0" y="326.0" text-anchor="middle" font-family="Helvetica, Arial, sans-serif" font-size="11" fill="#0f172a">Clinician console</text>
<rect x="324" y="360" width="232" height="44" rx="6" fill="#e0e7ff" stroke="#334155" data-id="alert-router" data-kind="component"/>
<text x="440.0" y="386.0" text-anchor="middle" font-family="Helvetica, Arial, sans-serif" font-size="11" fill="#0f172a">Alert router</text>
<rect x="604" y="120" width="232" height="44" rx="6" fill="#fef3c7" stroke="#334155" data-id="patient-record" data-kind="component"/>
<text x="720.0" y="146.0" text-anchor="middle" font-family="Helvetica, Arial, sans-serif" font-size="11" fill="#0f172a">Patient record</text>
<rect x="604" y="180" width="232" height="44" rx="6" fill="#fef3c7" stroke="#334155" data-id="triage-queue" data-kind="component"/>
<text x="720.0" y="206.0" text-anchor="middle" font-family="Helvetica, Arial, sans-serif" font-size="11" fill="#0f172a">Triage queue</text>
<rect x="884" y="120" width="232" height="44" rx="6" fill="#dcfce7" stroke="#334155" data-id="clinician" data-kind="component"/>
<text x="1000.0" y="146.0" text-anchor="middle" font-family="Helvetica, Arial, sans-serif" font-size="11" fill="#0f172a">Clinician</text>
<rect x="1164" y="120" width="232" height="44" rx="6" fill="#dcfce7" stroke="#334155" data-id="model-api" data-kind="component"/>
<text x="1280.0" y="146.0" text-anchor="middle" font-family="Helvetica, Arial, sans-serif" font-size="11" fill="#0f172a">Model API</text>
<line x1="160.0" y1="142.0" x2="440.0" y2="142.0" stroke="#64748b" stroke-width="1.25" marker-end="url(#arrow)" data-id="f-symptoms" data-kind="flow"/>
<line x1="440.0" y1="142.0" x2="440.0" y2="202.0" stroke="#64748b" stroke-width="1.25" marker-end="url(#arrow)" data-id="f-intake" data-kind="flow"/>
<line x1="720.0" y1="142.0" x2="440.0" y2="202.0" stroke="#64748b" stroke-width="1.25" marker-end="url(#arrow)" data-id="f-record-read" data-kind="flow"/>
<line x1="440.0" y1="202.0" x2="440.0" y2="262.0" stroke="#64748b" stroke-width="1.25" marker-end="url(#arrow)" data-id="f-prompt-input" data-kind="flow"/>
<line x1="440.0" y1="262.0" x2="1280.0" y2="142.0" stroke="#64748b" stroke-width="1.25" marker-end="url(#arrow)" data-id="f-prompt" data-kind="flow"/>
<line x1="1280.0" y1="142.0" x2="440.0" y2="202.0" stroke="#64748b" stroke-width="1.25" marker-end="url(#arrow)" data-id="f-model-output" data-kind="flow"/>
<line x1="440.0" y1="202.0" x2="720.0" y2="202.0" stroke="#64748b" stroke-width="1.25" marker-end="url(#arrow)" data-id="f-queue" data-kind="flow"/>
<line x1="720.0" y1="202.0" x2="440.0" y2="322.0" stroke="#64748b" stroke-width="1.25" marker-end="url(#arrow)" data-id="f-review" data-kind="flow"/>
<line x1="1000.0" y1="142.0" x2="440.0" y2="322.0" stroke="#64748b" stroke-width="1.25" marker-end="url(#arrow)" data-id="f-clinician" data-kind="flow"/>
<line x1="440.0" y1="322.0" x2="720.0" y2="142.0" stroke="#64748b" stroke-width="1.25" marker-end="url(#arrow)" data-id="f-record-write" data-kind="flow"/>
<line x1="440.0" y1="322.0" x2="440.0" y2="382.0" stroke="#64748b" stroke-width="1.25" marker-end="url(#arrow)" data-id="f-alert" data-kind="flow"/>
</svg>